<svg width="207" height="33" viewBox="0 0 207 33" fill="none" xmlns="http://www.w3.org/2000/svg">
<path d="M14.1512 32.1848C11.564 32.1848 9.18587 31.5837 7.0168 30.3816C4.87387 29.1795 3.16213 27.5069 1.8816 25.364C0.6272 23.1949 0 20.7645 0 18.0728C0 15.3811 0.6272 12.9637 1.8816 10.8208C3.16213 8.67787 4.87387 7.00533 7.0168 5.8032C9.18587 4.60107 11.564 4 14.1512 4C16.7384 4 19.1035 4.60107 21.2464 5.8032C23.4155 7.00533 25.1141 8.67787 26.3424 10.8208C27.5968 12.9637 28.224 15.3811 28.224 18.0728C28.224 20.7645 27.5968 23.1949 26.3424 25.364C25.088 27.5069 23.3893 29.1795 21.2464 30.3816C19.1035 31.5837 16.7384 32.1848 14.1512 32.1848ZM14.1512 26.0696C16.3464 26.0696 18.0973 25.3379 19.404 23.8744C20.7368 22.4109 21.4032 20.4771 21.4032 18.0728C21.4032 15.6424 20.7368 13.7085 19.404 12.2712C18.0973 10.8077 16.3464 10.076 14.1512 10.076C11.9299 10.076 10.1528 10.7947 8.82 12.232C7.51333 13.6693 6.86 15.6163 6.86 18.0728C6.86 20.5032 7.51333 22.4501 8.82 23.9136C10.1528 25.3509 11.9299 26.0696 14.1512 26.0696Z" fill="#69C2E4"/>
<path d="M49.8676 4.392V9.7624H38.6564V15.564H47.0452V20.7776H38.6564V31.9104H31.9532V4.392H49.8676Z" fill="white"/>
<path d="M71.3051 4.392V9.7624H60.0939V15.564H68.4827V20.7776H60.0939V31.9104H53.3907V4.392H71.3051Z" fill="white"/>
<path d="M81.5314 9.7624V15.3288H90.5082V20.5032H81.5314V26.54H91.6842V31.9104H74.8282V4.392H91.6842V9.7624H81.5314Z" fill="white"/>
<path d="M110.07 31.9104L104.346 21.5224H102.739V31.9104H96.036V4.392H107.286C109.455 4.392 111.298 4.77093 112.814 5.5288C114.355 6.28667 115.505 7.332 116.263 8.6648C117.021 9.97147 117.4 11.4349 117.4 13.0552C117.4 14.8845 116.877 16.5179 115.832 17.9552C114.813 19.3925 113.297 20.4117 111.285 21.0128L117.635 31.9104H110.07ZM102.739 16.7792H106.894C108.123 16.7792 109.037 16.4787 109.638 15.8776C110.266 15.2765 110.579 14.4272 110.579 13.3296C110.579 12.2843 110.266 11.4611 109.638 10.86C109.037 10.2589 108.123 9.9584 106.894 9.9584H102.739V16.7792Z" fill="white"/>
<path d="M178.703 26.344H187.484V31.5184H172V4H178.703V26.344Z" fill="white"/>
<path d="M197.384 26.344H206.165V31.5184H190.681V4H197.384V26.344Z" fill="white"/>
<path d="M160.561 27.139H149.291L147.644 31.9998H146.627L151.584 4.48145H158.346L168.303 31.9998H162.207L160.561 27.139ZM158.836 21.9646L155.426 11.8902L151.055 21.9646H158.836Z" fill="white"/>
<g filter="url(#filter0_f_165_10090)">
<path d="M158 4.5L159 5.99986L156.5 14.9999L155.5 12L158 4.5Z" fill="white"/>
</g>
<path d="M158.298 4.48145L151.124 31.9998H143.01L138.619 13.8894L134.072 31.9998H125.958L118.98 4.48145H126.154L130.113 24.5126L135.013 4.48145H142.382L147.086 24.5126L151.085 4.48145H158.298Z" fill="#69C2E4"/>
<defs>
<filter id="filter0_f_165_10090" x="151.5" y="0.5" width="11.4999" height="18.5" filterUnits="userSpaceOnUse" color-interpolation-filters="sRGB">
<feFlood flood-opacity="0" result="BackgroundImageFix"/>
<feBlend mode="normal" in="SourceGraphic" in2="BackgroundImageFix" result="shape"/>
<feGaussianBlur stdDeviation="2" result="effect1_foregroundBlur_165_10090"/>
</filter>
</defs>
</svg>
