<svg width="207" height="33" viewBox="0 0 207 33" fill="none" xmlns="http://www.w3.org/2000/svg">
<path d="M14.1512 32.0924C11.564 32.0924 9.18587 31.4913 7.0168 30.2892C4.87387 29.0871 3.16213 27.4145 1.8816 25.2716C0.6272 23.1025 0 20.6721 0 17.9804C0 15.2887 0.6272 12.8713 1.8816 10.7284C3.16213 8.58546 4.87387 6.91293 7.0168 5.71079C9.18587 4.50866 11.564 3.90759 14.1512 3.90759C16.7384 3.90759 19.1035 4.50866 21.2464 5.71079C23.4155 6.91293 25.1141 8.58546 26.3424 10.7284C27.5968 12.8713 28.224 15.2887 28.224 17.9804C28.224 20.6721 27.5968 23.1025 26.3424 25.2716C25.088 27.4145 23.3893 29.0871 21.2464 30.2892C19.1035 31.4913 16.7384 32.0924 14.1512 32.0924ZM14.1512 25.9772C16.3464 25.9772 18.0973 25.2455 19.404 23.782C20.7368 22.3185 21.4032 20.3847 21.4032 17.9804C21.4032 15.55 20.7368 13.6161 19.404 12.1788C18.0973 10.7153 16.3464 9.98359 14.1512 9.98359C11.9299 9.98359 10.1528 10.7023 8.82 12.1396C7.51333 13.5769 6.86 15.5239 6.86 17.9804C6.86 20.4108 7.51333 22.3577 8.82 23.8212C10.1528 25.2585 11.9299 25.9772 14.1512 25.9772Z" fill="#69C2E4"/>
<path d="M49.8676 4.29959V9.66999H38.6564V15.4716H47.0452V20.6852H38.6564V31.818H31.9532V4.29959H49.8676Z" fill="#212121"/>
<path d="M71.3051 4.29959V9.66999H60.0939V15.4716H68.4827V20.6852H60.0939V31.818H53.3907V4.29959H71.3051Z" fill="#212121"/>
<path d="M81.5314 9.66999V15.2364H90.5082V20.4108H81.5314V26.4476H91.6842V31.818H74.8282V4.29959H91.6842V9.66999H81.5314Z" fill="#212121"/>
<path d="M110.07 31.818L104.346 21.43H102.739V31.818H96.036V4.29959H107.286C109.455 4.29959 111.298 4.67853 112.814 5.43639C114.355 6.19426 115.505 7.23959 116.263 8.57239C117.021 9.87906 117.4 11.3425 117.4 12.9628C117.4 14.7921 116.877 16.4255 115.832 17.8628C114.813 19.3001 113.297 20.3193 111.285 20.9204L117.635 31.818H110.07ZM102.739 16.6868H106.894C108.123 16.6868 109.037 16.3863 109.638 15.7852C110.266 15.1841 110.579 14.3348 110.579 13.2372C110.579 12.1919 110.266 11.3687 109.638 10.7676C109.037 10.1665 108.123 9.86599 106.894 9.86599H102.739V16.6868Z" fill="#212121"/>
<path d="M178.703 26.2516H187.484V31.426H172V3.90759H178.703V26.2516Z" fill="#212121"/>
<path d="M197.384 26.2516H206.165V31.426H190.681V3.90759H197.384V26.2516Z" fill="#212121"/>
<path d="M160.561 27.0468H149.291L147.644 31.9076H146.627L151.584 4.38916H158.346L168.303 31.9076H162.207L160.561 27.0468ZM158.836 21.8724L155.426 11.798L151.055 21.8724H158.836Z" fill="#212121"/>
<g filter="url(#filter0_f_165_10107)">
<path d="M158 4.40759L159 5.90746L156.5 14.9075L155.5 11.9076L158 4.40759Z" fill="white"/>
</g>
<path d="M158.298 4.38916L151.124 31.9076H143.01L138.619 13.7972L134.072 31.9076H125.958L118.98 4.38916H126.154L130.113 24.4204L135.013 4.38916H142.382L147.086 24.4204L151.085 4.38916H158.298Z" fill="#69C2E4"/>
<defs>
<filter id="filter0_f_165_10107" x="151.5" y="0.407593" width="11.4999" height="18.4999" filterUnits="userSpaceOnUse" color-interpolation-filters="sRGB">
<feFlood flood-opacity="0" result="BackgroundImageFix"/>
<feBlend mode="normal" in="SourceGraphic" in2="BackgroundImageFix" result="shape"/>
<feGaussianBlur stdDeviation="2" result="effect1_foregroundBlur_165_10107"/>
</filter>
</defs>
</svg>
